<?xml version="1.0" encoding="utf-8"?>
<!-- Generator: Adobe Illustrator 16.0.3, SVG Export Plug-In . SVG Version: 6.00 Build 0)  -->
<!DOCTYPE svg PUBLIC "-//W3C//DTD SVG 1.1//EN" "http://www.w3.org/Graphics/SVG/1.1/DTD/svg11.dtd">
<svg version="1.1" id="Ebene_1" xmlns="http://www.w3.org/2000/svg" xmlns:xlink="http://www.w3.org/1999/xlink" x="0px" y="0px"
	 width="460px" height="107.862px" viewBox="0 0 460 107.862" enable-background="new 0 0 460 107.862" xml:space="preserve">
<g id="XMLID_5_">
	<rect id="XMLID_17_" x="215.9" y="0" fill="#484847" width="0.506" height="107.861"/>
</g>
<g>
	<g id="XMLID_53_">
		<path fill="#EC6700" d="M18.768,54.498L4.098,32.005H0v28.222h4.704V41.133l9.221,14.39c0.962,1.521,1.855,2.678,2.678,3.469
			c0.822,0.792,1.436,1.188,1.839,1.188h0.513c0.155,0,0.403-0.117,0.745-0.349c0.341-0.233,0.729-0.559,1.164-0.978
			c0.435-0.419,0.885-0.908,1.351-1.467c0.465-0.559,0.916-1.179,1.351-1.862l9.267-14.437v19.14h4.704V32.005h-4.099L18.768,54.498
			z"/>
	</g>
	<g id="XMLID_52_">
		<path fill="#EC6700" d="M47.292,32.563c-1.009,0.373-1.839,0.878-2.491,1.514c-0.652,0.637-1.142,1.39-1.467,2.259
			c-0.326,0.87-0.489,1.786-0.489,2.748v2.375c0,1.77,0.652,3.322,1.956,4.657c-1.304,1.366-1.956,2.918-1.956,4.657v2.375
			c0,0.994,0.155,1.917,0.466,2.771c0.31,0.854,0.791,1.599,1.443,2.235c0.652,0.637,1.482,1.141,2.492,1.514
			c1.009,0.372,2.212,0.559,3.609,0.559h24.961v-4.704H50.854c-1.025,0-1.833-0.287-2.422-0.862
			c-0.59-0.574-0.885-1.451-0.885-2.631c0-2.172,0.946-3.353,2.841-3.539h25.427v-4.703H50.854c-1.025,0-1.833-0.303-2.422-0.908
			c-0.59-0.605-0.885-1.498-0.885-2.678c0-1.18,0.294-2.057,0.885-2.631c0.589-0.575,1.397-0.862,2.422-0.862h24.961v-4.704H50.854
			C49.487,32.005,48.3,32.191,47.292,32.563z"/>
	</g>
	<g id="XMLID_51_">
		<path fill="#EC6700" d="M110.254,35.218c-1.289-1.118-2.934-1.933-4.937-2.445c-2.002-0.512-4.371-0.768-7.102-0.768H81.124v4.704
			h16.905c3.943,0,6.807,0.761,8.592,2.282c1.785,1.521,2.678,3.865,2.678,7.033c0,3.136-0.901,5.503-2.701,7.102
			c-1.801,1.6-4.673,2.398-8.616,2.398H85.828V43.788h-4.704v16.439h17.045c5.433,0,9.438-1.156,12.015-3.469
			c2.576-2.313,3.865-5.907,3.865-10.782c0-2.515-0.311-4.656-0.932-6.426C112.497,37.78,111.542,36.336,110.254,35.218z"/>
	</g>
	<g id="XMLID_50_">
		<rect x="119.358" y="32.005" fill="#EC6700" width="4.75" height="28.222"/>
	</g>
	<g id="XMLID_49_">
		<path fill="#EC6700" d="M133.864,32.563c-1.009,0.373-1.839,0.878-2.491,1.514c-0.652,0.637-1.142,1.39-1.467,2.259
			c-0.326,0.87-0.489,1.786-0.489,2.748v2.375c0,1.77,0.652,3.322,1.956,4.657c-1.304,1.366-1.956,2.918-1.956,4.657v2.375
			c0,0.994,0.155,1.917,0.466,2.771c0.31,0.854,0.791,1.599,1.443,2.235c0.652,0.637,1.482,1.141,2.492,1.514
			c1.008,0.372,2.212,0.559,3.609,0.559h24.961v-4.704h-24.961c-1.025,0-1.833-0.287-2.422-0.862
			c-0.59-0.574-0.885-1.451-0.885-2.631c0-2.172,0.947-3.353,2.841-3.539h25.427v-4.703h-24.961c-1.025,0-1.833-0.303-2.422-0.908
			c-0.59-0.605-0.885-1.498-0.885-2.678c0-1.18,0.294-2.057,0.885-2.631c0.589-0.575,1.397-0.862,2.422-0.862h24.961v-4.704h-24.961
			C136.06,32.005,134.873,32.191,133.864,32.563z"/>
	</g>
	<g id="XMLID_48_">
		<path fill="#EC6700" d="M195.965,32.005V53.38L174.17,33.588c-0.652-0.496-1.211-0.869-1.676-1.118
			c-0.466-0.248-0.916-0.403-1.351-0.466h-1.071c-1.583,0-2.375,0.962-2.375,2.888v25.334h4.704V38.571l21.049,19.094
			c0.869,0.808,1.661,1.413,2.375,1.816c0.714,0.404,1.288,0.652,1.724,0.745h0.791c1.552,0,2.33-0.947,2.33-2.841v-25.38H195.965z"
			/>
	</g>
</g>
<g id="XMLID_27_">
	<g id="XMLID_46_">
		<path fill="#484847" d="M250.404,54.625l-14.67-22.493h-4.098v28.222h4.703V41.259l9.222,14.39
			c0.962,1.521,1.854,2.678,2.678,3.469c0.821,0.792,1.436,1.188,1.839,1.188h0.513c0.154,0,0.403-0.117,0.745-0.35
			c0.341-0.233,0.729-0.559,1.165-0.978c0.434-0.419,0.884-0.908,1.35-1.467c0.466-0.559,0.915-1.18,1.351-1.863l9.267-14.437v19.14
			h4.704V32.131h-4.098L250.404,54.625z"/>
	</g>
	<g id="XMLID_45_">
		<path fill="#484847" d="M294.227,34.577c-0.465-0.605-0.9-1.087-1.304-1.444c-0.403-0.356-0.776-0.597-1.117-0.722
			c-0.342-0.124-0.652-0.186-0.932-0.186h-0.698c-0.559,0-1.273,0.311-2.143,0.932c-0.869,0.622-1.786,1.863-2.748,3.725
			l-12.154,23.472h5.448l11.876-22.586l11.828,22.586h5.542l-12.154-23.472C295.174,35.95,294.692,35.182,294.227,34.577z"/>
	</g>
	<g id="XMLID_44_">
		<path fill="#484847" d="M315.626,35.601c-2.563,2.313-3.843,5.907-3.843,10.782c0,2.515,0.31,4.656,0.932,6.426
			c0.621,1.77,1.575,3.213,2.864,4.331c1.288,1.118,2.926,1.933,4.913,2.445s4.361,0.769,7.125,0.769h17.091v-4.704h-16.904
			c-3.943,0-6.808-0.76-8.592-2.282c-1.786-1.521-2.678-3.865-2.678-7.033c0-3.135,0.899-5.502,2.701-7.102
			c1.799-1.599,4.671-2.398,8.615-2.398h12.154v2.422h4.703v-7.125h-17.045C322.199,32.131,318.188,33.288,315.626,35.601z"/>
	</g>
	<g id="XMLID_43_">
		<path fill="#484847" d="M392.698,32.69c-1.009,0.373-1.84,0.878-2.492,1.514c-0.651,0.637-1.141,1.39-1.466,2.259
			c-0.326,0.87-0.489,1.786-0.489,2.748v2.375c0,1.77,0.651,3.323,1.955,4.657c-1.304,1.366-1.955,2.918-1.955,4.657v2.375
			c0,0.994,0.155,1.917,0.466,2.771c0.31,0.854,0.792,1.599,1.443,2.235c0.652,0.637,1.481,1.141,2.491,1.514
			c1.009,0.372,2.213,0.559,3.609,0.559h24.962v-4.704h-24.962c-1.024,0-1.832-0.287-2.422-0.862
			c-0.59-0.574-0.885-1.451-0.885-2.631c0-2.172,0.947-3.353,2.841-3.539h25.428v-4.704h-24.962c-1.024,0-1.832-0.303-2.422-0.908
			c-0.59-0.605-0.885-1.498-0.885-2.678c0-1.18,0.295-2.057,0.885-2.631c0.59-0.574,1.397-0.862,2.422-0.862h24.962v-4.704h-24.962
			C394.895,32.131,393.706,32.318,392.698,32.69z"/>
	</g>
	<g id="XMLID_42_">
		<path fill="#484847" d="M454.938,48.012c1.024-0.403,1.87-0.931,2.538-1.583c0.667-0.652,1.171-1.397,1.513-2.235
			c0.343-0.838,0.514-1.707,0.514-2.608V39.21c0-0.962-0.171-1.878-0.514-2.748c-0.342-0.869-0.846-1.622-1.513-2.259
			c-0.668-0.636-1.514-1.141-2.538-1.514c-1.024-0.372-2.22-0.559-3.586-0.559H426.53v4.704h24.962c1.024,0,1.831,0.288,2.422,0.862
			c0.589,0.575,0.885,1.451,0.885,2.631c0,1.18-0.296,2.072-0.885,2.678c-0.591,0.605-1.397,0.908-2.422,0.908H426.53v16.439h4.703
			V48.618h9.967l12.016,11.735h6.193l-11.597-11.735h3.54C452.719,48.618,453.914,48.416,454.938,48.012z"/>
	</g>
	<g id="XMLID_30_">
		<polygon fill="#484847" points="379.521,43.787 354.721,43.787 354.721,32.131 350.018,32.131 350.018,60.353 354.721,60.353 
			354.721,48.618 379.521,48.618 379.521,60.227 384.224,60.227 384.224,32.005 379.521,32.005 		"/>
	</g>
</g>
<g id="XMLID_23_">
	<path id="XMLID_24_" fill="#ABACAC" d="M236.284,67.946c2.142,0,3.432,0.988,3.432,2.658c0,1.246-0.714,2.141-1.958,2.399
		c1.533,0.229,2.429,1.23,2.429,2.688c0,1.807-1.428,2.885-3.826,2.885h-4.556v-10.63H236.284z M233.02,72.532h3.204
		c1.428,0,2.263-0.623,2.263-1.731c0-1.079-0.835-1.686-2.263-1.686h-3.204V72.532z M233.02,77.422h3.204
		c1.73,0,2.733-0.684,2.733-1.898c0-1.155-1.003-1.838-2.733-1.838h-3.204V77.422z"/>
	<path id="XMLID_29_" fill="#ABACAC" d="M252.185,78.576l-2.87-8.959l-2.901,8.959h-1.244l-3.555-10.63h1.307l2.915,9.218
		l2.886-9.203l1.215-0.016l2.915,9.218l2.886-9.218h1.261l-3.569,10.63H252.185z"/>
	<path id="XMLID_32_" fill="#ABACAC" d="M267.294,73.382v3.857c-1.048,0.835-2.521,1.397-3.949,1.397
		c-3.082,0-5.542-2.384-5.542-5.375s2.476-5.345,5.604-5.345c1.474,0,2.901,0.562,3.917,1.458l-0.697,0.912
		c-0.866-0.775-2.035-1.23-3.22-1.23c-2.43,0-4.374,1.868-4.374,4.206c0,2.354,1.96,4.222,4.39,4.222
		c0.956,0,1.974-0.334,2.794-0.896v-3.205H267.294z"/>
	<path id="XMLID_34_" fill="#ABACAC" d="M284.362,78.576l-2.87-8.959l-2.899,8.959h-1.246l-3.554-10.63h1.307l2.915,9.218
		l2.885-9.203l1.216-0.016l2.915,9.218l2.885-9.218h1.261l-3.568,10.63H284.362z"/>
	<path id="XMLID_36_" fill="#ABACAC" d="M297.194,75.038h-6.529c0.212,1.564,1.352,2.552,2.899,2.552
		c0.987,0,1.853-0.35,2.476-1.002l0.652,0.698c-0.759,0.852-1.882,1.337-3.219,1.337c-2.354,0-3.979-1.655-3.979-4.04
		c0-2.383,1.641-4.039,3.964-4.039C296.04,70.528,297.315,72.32,297.194,75.038z M296.131,74.066
		c-0.076-1.534-1.108-2.505-2.672-2.505c-1.519,0-2.612,0.986-2.794,2.505H296.131z"/>
	<path id="XMLID_39_" fill="#ABACAC" d="M300.87,72.35c0.531-1.169,1.519-1.807,2.87-1.822v1.199
		c-1.687-0.031-2.734,1.017-2.87,2.596v4.252h-1.185v-8.002h1.185V72.35z"/>
	<path id="XMLID_41_" fill="#ABACAC" d="M313.975,74.598c0,2.369-1.55,4.024-3.812,4.024c-1.428,0-2.521-0.653-3.113-1.762v1.716
		h-1.185V67.308h1.185v4.997c0.593-1.124,1.686-1.776,3.083-1.776C312.395,70.528,313.975,72.198,313.975,74.598z M312.774,74.567
		c0-1.715-1.185-2.976-2.854-2.976c-1.686,0-2.87,1.245-2.87,2.976c0,1.746,1.185,2.977,2.87,2.977
		C311.59,77.544,312.774,76.298,312.774,74.567z"/>
	<path id="XMLID_56_" fill="#ABACAC" d="M323.404,75.038h-6.529c0.213,1.564,1.352,2.552,2.9,2.552c0.987,0,1.853-0.35,2.476-1.002
		l0.652,0.698c-0.76,0.852-1.883,1.337-3.22,1.337c-2.353,0-3.978-1.655-3.978-4.04c0-2.383,1.64-4.039,3.963-4.039
		C322.251,70.528,323.526,72.32,323.404,75.038z M322.342,74.066c-0.076-1.534-1.108-2.505-2.673-2.505
		c-1.519,0-2.611,0.986-2.794,2.505H322.342z"/>
	<path id="XMLID_59_" fill="#ABACAC" d="M332.866,77.741c0,2.339-1.595,3.811-4.024,3.811c-1.261-0.015-2.309-0.425-3.28-1.154
		l0.547-0.911c0.79,0.653,1.625,1.001,2.688,1.018c1.746,0,2.885-1.064,2.885-2.734v-1.215c-0.562,1.063-1.595,1.671-2.946,1.671
		c-2.156,0-3.645-1.595-3.645-3.873c0-2.232,1.474-3.812,3.615-3.826c1.366,0,2.398,0.607,2.976,1.67v-1.625h1.185V77.741z
		 M331.682,74.4c0-1.67-1.139-2.839-2.733-2.839c-1.61,0-2.733,1.184-2.749,2.839c0.016,1.64,1.139,2.825,2.749,2.825
		C330.543,77.225,331.682,76.04,331.682,74.4z"/>
	<path id="XMLID_62_" fill="#ABACAC" d="M342.902,75.038h-6.528c0.212,1.564,1.352,2.552,2.899,2.552
		c0.987,0,1.853-0.35,2.476-1.002l0.652,0.698c-0.759,0.852-1.882,1.337-3.219,1.337c-2.354,0-3.979-1.655-3.979-4.04
		c0-2.383,1.641-4.039,3.964-4.039C341.749,70.528,343.024,72.32,342.902,75.038z M341.84,74.066
		c-0.076-1.534-1.108-2.505-2.672-2.505c-1.519,0-2.612,0.986-2.794,2.505H341.84z"/>
	<path id="XMLID_65_" fill="#ABACAC" d="M350.071,71.257l-0.455,0.941c-0.623-0.395-1.428-0.653-2.172-0.653
		c-0.896,0-1.579,0.318-1.579,1.063c0,1.777,4.465,0.865,4.465,3.735c0,1.58-1.397,2.278-2.931,2.278
		c-1.139,0-2.309-0.395-3.068-1.124l0.456-0.896c0.684,0.638,1.716,1.018,2.657,1.018s1.701-0.349,1.716-1.139
		c0.045-1.928-4.435-0.941-4.419-3.781c0-1.533,1.321-2.171,2.778-2.171C348.477,70.528,349.403,70.801,350.071,71.257z"/>
	<path id="XMLID_67_" fill="#ABACAC" d="M359.622,75.038h-6.529c0.213,1.564,1.352,2.552,2.9,2.552c0.987,0,1.853-0.35,2.475-1.002
		l0.653,0.698c-0.76,0.852-1.883,1.337-3.22,1.337c-2.353,0-3.979-1.655-3.979-4.04c0-2.383,1.641-4.039,3.964-4.039
		C358.468,70.528,359.743,72.32,359.622,75.038z M358.56,74.066c-0.076-1.534-1.108-2.505-2.673-2.505
		c-1.519,0-2.612,0.986-2.794,2.505H358.56z"/>
	<path id="XMLID_70_" fill="#ABACAC" d="M362.189,78.576V67.308h1.185v11.268H362.189z"/>
	<path id="XMLID_72_" fill="#ABACAC" d="M366.867,78.576V67.308h1.185v11.268H366.867z"/>
	<path id="XMLID_74_" fill="#ABACAC" d="M376.146,71.257l-0.456,0.941c-0.622-0.395-1.428-0.653-2.171-0.653
		c-0.896,0-1.58,0.318-1.58,1.063c0,1.777,4.465,0.865,4.465,3.735c0,1.58-1.396,2.278-2.93,2.278c-1.14,0-2.309-0.395-3.068-1.124
		l0.456-0.896c0.683,0.638,1.715,1.018,2.657,1.018c0.941,0,1.7-0.349,1.716-1.139c0.045-1.928-4.435-0.941-4.419-3.781
		c0-1.533,1.321-2.171,2.778-2.171C374.551,70.528,375.478,70.801,376.146,71.257z"/>
	<path id="XMLID_76_" fill="#ABACAC" d="M385.044,71.728l-0.654,0.835c-0.606-0.578-1.411-0.926-2.383-0.926
		c-1.655,0-2.84,1.199-2.84,2.945c0,1.747,1.185,2.962,2.84,2.962c1.048,0,1.912-0.365,2.476-1.033l0.683,0.729
		c-0.714,0.866-1.822,1.382-3.204,1.382c-2.323,0-3.964-1.655-3.964-4.04c0-2.383,1.655-4.039,3.964-4.039
		C383.251,70.528,384.314,70.968,385.044,71.728z"/>
	<path id="XMLID_78_" fill="#ABACAC" d="M395.188,73.641v4.936h-1.186V73.96c0-1.413-0.851-2.248-2.262-2.248
		c-1.701,0.015-2.703,1.214-2.703,2.931v3.933h-1.185V67.308h1.185v5.057c0.547-1.245,1.64-1.822,3.113-1.837
		C394.064,70.528,395.188,71.712,395.188,73.641z"/>
	<path id="XMLID_80_" fill="#ABACAC" d="M403.252,77.346c-0.638,0.865-1.656,1.29-2.932,1.29c-1.655,0-2.718-1.063-2.718-2.444
		c0-1.397,1.108-2.278,2.992-2.294h2.626v-0.47c0-1.17-0.729-1.868-2.141-1.868c-0.882,0-1.701,0.334-2.536,0.912l-0.502-0.866
		c1.033-0.683,1.898-1.078,3.266-1.078c1.974,0,3.067,1.047,3.083,2.763l0.015,5.285h-1.153V77.346z M403.236,75.813v-0.957h-2.491
		c-1.335,0-2.034,0.411-2.034,1.291c0,0.881,0.714,1.458,1.838,1.458C401.9,77.604,402.933,76.921,403.236,75.813z"/>
	<path id="XMLID_83_" fill="#ABACAC" d="M408.916,69.784v1.032h2.292v0.972h-2.292v6.789h-1.17v-6.789h-1.033v-0.972h1.033v-0.88
		c0-1.747,1.229-2.688,2.566-2.688c0.607,0.015,1.23,0.198,1.716,0.562l-0.485,0.957c-0.365-0.258-0.805-0.411-1.216-0.411
		C409.554,68.356,408.916,68.857,408.916,69.784z"/>
	<path id="XMLID_85_" fill="#ABACAC" d="M417.101,78.029c-0.562,0.379-1.169,0.592-1.807,0.607c-1.17,0-2.035-0.698-2.035-2.277
		v-4.572h-1.153v-0.956h1.153v-2.11h1.17v2.11l2.536-0.016v0.972h-2.536v4.358c0,0.973,0.38,1.336,1.063,1.336
		c0.41,0,0.836-0.136,1.275-0.41L417.101,78.029z"/>
	<path id="XMLID_87_" fill="#ABACAC" d="M437.19,73.641v4.936h-1.185V73.96c0-1.428-0.835-2.263-2.216-2.263
		c-1.656,0.045-2.612,1.23-2.612,2.946v3.933h-1.2V73.96c0-1.428-0.82-2.263-2.217-2.263c-1.641,0.045-2.627,1.23-2.627,2.946v3.933
		h-1.17v-8.002h1.17v1.806c0.531-1.245,1.609-1.837,3.052-1.852c1.504,0,2.536,0.774,2.87,2.095c0.502-1.412,1.625-2.08,3.159-2.095
		C436.082,70.528,437.19,71.712,437.19,73.641z"/>
	<path id="XMLID_89_" fill="#ABACAC" d="M448.459,74.598c0,2.369-1.549,4.024-3.811,4.024c-1.428,0-2.521-0.653-3.113-1.762v1.716
		h-1.185V67.308h1.185v4.997c0.592-1.124,1.686-1.776,3.082-1.776C446.88,70.528,448.459,72.198,448.459,74.598z M447.259,74.567
		c0-1.715-1.185-2.976-2.854-2.976c-1.687,0-2.87,1.245-2.87,2.976c0,1.746,1.184,2.977,2.87,2.977
		C446.074,77.544,447.259,76.298,447.259,74.567z"/>
	<path id="XMLID_92_" fill="#ABACAC" d="M458.786,78.576v-4.678h-6.409v4.678h-1.215v-10.63h1.215v4.799h6.409v-4.799H460v10.63
		H458.786z"/>
</g>
<g id="XMLID_18_">
	<polygon id="XMLID_19_" fill="#EC6700" points="298.074,60.353 290.461,45.691 290.453,45.707 290.446,45.691 282.834,60.353 	"/>
</g>
</svg>
