<?xml version="1.0" encoding="utf-8"?>
<!-- Generator: Adobe Illustrator 27.5.0, SVG Export Plug-In . SVG Version: 6.00 Build 0)  -->
<svg version="1.1" id="Ebene_1" xmlns="http://www.w3.org/2000/svg" xmlns:xlink="http://www.w3.org/1999/xlink" x="0px" y="0px"
	 viewBox="0 0 660.6 134.8" style="enable-background:new 0 0 660.6 134.8;" xml:space="preserve">
<style type="text/css">
	.st0{fill:#4DB8E8;}
	.st1{fill:#4CB8E8;}
	.st2{fill:#FFFFFF;}
</style>
<g id="Icons">
</g>
<path class="st0" d="M108.9,0.1c21.5,14.5,35.6,39.1,35.6,67c0,28.5-14.7,53.4-36.9,67.8h553.2V0.1H108.9z"/>
<g id="Ebene_2_00000171678602595471312590000007681238787417323159_">
	<g id="Mail_2_00000182517102467935148990000006578575542064570548_">
		<path class="st1" d="M103.8,32.6H31c-6.7,0-12.1,5.4-12.1,12.1v45.5c0,6.7,5.4,12.1,12.1,12.1h72.8c6.7,0,12.1-5.4,12.1-12.1V44.7
			C115.9,38,110.5,32.6,103.8,32.6z M109.8,90.2c0,3.3-2.7,6.1-6.1,6.1H31c-3.3,0-6.1-2.7-6.1-6.1V44.7c0-3.3,2.7-6.1,6.1-6.1h72.8
			c3.3,0,6.1,2.7,6.1,6.1L109.8,90.2L109.8,90.2z"/>
		<path class="st1" d="M103.1,48.8c-1.1-1.3-3-1.5-4.3-0.4L67.4,74.1L36,48.4c-1.3-1.1-3.2-0.9-4.3,0.4c-1.1,1.3-0.9,3.2,0.4,4.3
			l33.3,27.3c0.6,0.5,1.2,0.7,1.9,0.7c0.7,0,1.4-0.2,1.9-0.7l33.3-27.3C104,52.1,104.1,50.1,103.1,48.8z"/>
		<path class="st1" d="M90.8,72.9c-1.2-1.2-3.1-1.2-4.3,0c-1.2,1.2-1.2,3.1,0,4.3l12.1,12.1c0.6,0.6,1.4,0.9,2.1,0.9
			c0.8,0,1.6-0.3,2.1-0.9c1.2-1.2,1.2-3.1,0-4.3L90.8,72.9z"/>
		<path class="st1" d="M44,72.9L31.9,85c-1.2,1.2-1.2,3.1,0,4.3c0.6,0.6,1.4,0.9,2.1,0.9c0.8,0,1.6-0.3,2.1-0.9l12.1-12.1
			c1.2-1.2,1.2-3.1,0-4.3C47.1,71.7,45.2,71.7,44,72.9z"/>
	</g>
</g>
<path class="st0" d="M67.4,134.8C30.2,134.8,0,104.6,0,67.4S30.2,0,67.4,0s67.4,30.2,67.4,67.4S104.6,134.8,67.4,134.8z M67.4,7.5
	c-33,0-59.9,26.9-59.9,59.9s26.9,59.9,59.9,59.9s59.9-26.9,59.9-59.9S100.5,7.5,67.4,7.5z"/>
<g>
	<path class="st2" d="M177.7,52.3c-4.2,0-6.5,1.9-6.5,4.5c-0.1,2.9,2.9,4.2,6.4,5l3.6,0.9c7,1.6,12,5.1,12.1,11.8
		c0,7.4-5.8,12.1-15.6,12.1c-9.8,0-16-4.5-16.2-13.2h8.2c0.3,4,3.5,6.1,7.9,6.1c4.3,0,7.1-2,7.1-4.9c0-2.7-2.5-4-6.8-5l-4.4-1.1
		c-6.8-1.6-11-5-11-11c0-7.3,6.4-12.2,15.2-12.2c9,0,14.8,4.9,15,12.1h-8.1C184.2,54.1,181.7,52.3,177.7,52.3z"/>
	<path class="st2" d="M197.6,70.9c0-9.2,5.7-15.6,14.8-15.6c7.9,0,13.2,4.6,13.5,11.5H218c-0.5-3-2.4-5-5.5-5c-3.9,0-6.4,3.3-6.4,9
		c0,5.8,2.5,9.1,6.4,9.1c2.9,0,5-1.8,5.5-5h7.9c-0.4,6.9-5.4,11.6-13.5,11.6C203.1,86.5,197.6,80.1,197.6,70.9z"/>
	<path class="st2" d="M239.6,85.9h-8.4V45.7h8.1v15.4h0.4c1.4-3.6,4.4-5.7,9-5.7c6.3,0,10.4,4.3,10.4,11.4v19.2h-8.4V68.2
		c0-3.7-2-5.9-5.4-5.9c-3.4,0-5.8,2.3-5.8,6.2V85.9z"/>
	<path class="st2" d="M265.8,55.7h8.1V61h0.3c1.1-3.7,3.9-5.7,7.2-5.7c0.8,0,1.9,0.1,2.6,0.3V63c-0.8-0.3-2.4-0.5-3.5-0.5
		c-3.7,0-6.4,2.6-6.4,6.3v17.1h-8.4V55.7z"/>
	<path class="st2" d="M285.8,71c0-9.3,5.8-15.6,14.6-15.6c8,0,14.2,5.1,14.2,15.3V73H294v0c0,4.5,2.7,7.3,6.8,7.3
		c2.8,0,4.9-1.2,5.8-3.5l7.7,0.5c-1.2,5.6-6.2,9.2-13.7,9.2C291.5,86.5,285.8,80.5,285.8,71z M306.7,67.8c0-3.6-2.5-6.2-6.2-6.2
		c-3.7,0-6.3,2.7-6.5,6.2H306.7z"/>
	<path class="st2" d="M319.7,47.6c0-2.3,2-4.2,4.5-4.2c2.5,0,4.5,1.9,4.5,4.2c0,2.3-2,4.2-4.5,4.2C321.8,51.9,319.7,50,319.7,47.6z
		 M320,55.7h8.4v30.2H320V55.7z"/>
	<path class="st2" d="M335.2,45.7h8.4v15.1h0.3c1.1-2.5,3.5-5.5,8.6-5.5c6.6,0,12.2,5.1,12.2,15.5c0,10.1-5.4,15.5-12.2,15.5
		c-4.9,0-7.4-2.8-8.6-5.3h-0.4v4.8h-8.2V45.7z M349.8,79.7c4.1,0,6.3-3.7,6.3-8.9c0-5.2-2.2-8.8-6.3-8.8c-4.1,0-6.3,3.4-6.3,8.8
		S345.8,79.7,349.8,79.7z"/>
	<path class="st2" d="M369,71c0-9.3,5.8-15.6,14.6-15.6c8,0,14.2,5.1,14.2,15.3V73h-20.5v0c0,4.5,2.7,7.3,6.8,7.3
		c2.8,0,4.9-1.2,5.8-3.5l7.7,0.5c-1.2,5.6-6.2,9.2-13.7,9.2C374.7,86.5,369,80.5,369,71z M389.9,67.8c0-3.6-2.5-6.2-6.2-6.2
		c-3.7,0-6.3,2.7-6.5,6.2H389.9z"/>
	<path class="st2" d="M411.6,85.9h-8.4V55.7h8v5.3h0.4c1.4-3.5,4.6-5.7,9.1-5.7c6.3,0,10.4,4.3,10.4,11.4v19.2h-8.4V68.2
		c0-3.7-2-5.9-5.4-5.9c-3.4,0-5.7,2.3-5.7,6.2V85.9z"/>
	<path class="st2" d="M465.6,52.3c-4.2,0-6.5,1.9-6.5,4.5c-0.1,2.9,2.9,4.2,6.4,5l3.6,0.9c7,1.6,12,5.1,12.1,11.8
		c0,7.4-5.8,12.1-15.6,12.1c-9.8,0-16-4.5-16.2-13.2h8.2c0.3,4,3.5,6.1,7.9,6.1c4.3,0,7.1-2,7.1-4.9c0-2.7-2.5-4-6.8-5l-4.4-1.1
		c-6.8-1.6-11-5-11-11c0-7.3,6.4-12.2,15.2-12.2c9,0,14.8,4.9,15,12.1h-8.1C472.1,54.1,469.7,52.3,465.6,52.3z"/>
	<path class="st2" d="M486.4,47.6c0-2.3,2-4.2,4.5-4.2c2.5,0,4.5,1.9,4.5,4.2c0,2.3-2,4.2-4.5,4.2C488.4,51.9,486.4,50,486.4,47.6z
		 M486.7,55.7h8.4v30.2h-8.4V55.7z"/>
	<path class="st2" d="M500.5,71c0-9.3,5.8-15.6,14.6-15.6c8,0,14.2,5.1,14.2,15.3V73h-20.5v0c0,4.5,2.7,7.3,6.8,7.3
		c2.8,0,4.9-1.2,5.8-3.5l7.7,0.5c-1.2,5.6-6.2,9.2-13.7,9.2C506.2,86.5,500.5,80.5,500.5,71z M521.5,67.8c0-3.6-2.5-6.2-6.2-6.2
		c-3.7,0-6.3,2.7-6.5,6.2H521.5z"/>
	<path class="st2" d="M567,55.7h8.4v30.2h-8v-5.5H567c-1.4,3.5-4.6,5.9-9.2,5.9c-6.1,0-10.2-4.3-10.2-11.4V55.7h8.4v17.7
		c0,3.6,2.1,5.8,5.2,5.8c3,0,5.8-2.1,5.8-6.2V55.7z"/>
	<path class="st2" d="M590.4,85.9H582V55.7h8v5.3h0.4c1.4-3.5,4.6-5.7,9.1-5.7c6.3,0,10.4,4.3,10.4,11.4v19.2h-8.4V68.2
		c0-3.7-2-5.9-5.4-5.9c-3.4,0-5.7,2.3-5.7,6.2V85.9z"/>
	<path class="st2" d="M633.8,64.8c-0.4-1.9-2.1-3.5-5-3.5c-2.6,0-4.6,1.2-4.6,3c0,1.5,1,2.4,3.8,3l5.5,1.1c5.9,1.2,8.7,3.8,8.7,8.2
		c0,6-5.6,9.9-13.4,9.9c-8,0-12.9-3.6-13.7-9.3l8.2-0.4c0.5,2.5,2.5,3.7,5.5,3.7c2.9,0,4.9-1.3,4.9-3.1c0-1.5-1.2-2.5-3.9-3l-5.2-1
		c-5.9-1.2-8.7-4.1-8.7-8.6c0-5.8,5.1-9.4,12.8-9.4c7.6,0,12.1,3.4,12.8,9L633.8,64.8z"/>
</g>
<text transform="matrix(1 0 0 1 161.4418 -55.5367)" class="st2" style="font-family:'Inter-Bold'; font-size:55.303px;">Schreiben Sie uns</text>
</svg>
