<?xml version="1.0" encoding="utf-8"?>
<!-- Generator: Adobe Illustrator 27.5.0, SVG Export Plug-In . SVG Version: 6.00 Build 0)  -->
<svg version="1.1" id="Ebene_1" xmlns="http://www.w3.org/2000/svg" xmlns:xlink="http://www.w3.org/1999/xlink" x="0px" y="0px"
	 viewBox="0 0 660.6 134.8" style="enable-background:new 0 0 660.6 134.8;" xml:space="preserve">
<style type="text/css">
	.st0{fill:#4DB8E8;}
	.st1{fill:#FFFFFF;}
	.st2{fill:#4CB8E8;}
</style>
<g id="Icons">
</g>
<path class="st0" d="M108.9,0.1c21.5,14.5,35.6,39.1,35.6,67c0,28.5-14.7,53.4-36.9,67.8h553.2V0.1H108.9z"/>
<path class="st0" d="M67.4,134.8C30.2,134.8,0,104.6,0,67.4S30.2,0,67.4,0s67.4,30.2,67.4,67.4S104.6,134.8,67.4,134.8z M67.4,7.5
	c-33,0-59.9,26.9-59.9,59.9s26.9,59.9,59.9,59.9s59.9-26.9,59.9-59.9S100.5,7.5,67.4,7.5z"/>
<g>
	<path class="st1" d="M173.7,212.6c-4.2,0-6.5,1.9-6.5,4.5c-0.1,2.9,2.9,4.2,6.4,5l3.6,0.9c7,1.6,12,5.1,12.1,11.8
		c0,7.4-5.8,12.1-15.6,12.1c-9.8,0-16-4.5-16.2-13.2h8.2c0.3,4,3.5,6.1,7.9,6.1c4.3,0,7.1-2,7.1-4.9c0-2.7-2.5-4-6.8-5l-4.4-1.1
		c-6.8-1.6-11-5-11-11c0-7.3,6.4-12.2,15.2-12.2c9,0,14.8,4.9,15,12.1h-8.1C180.2,214.4,177.8,212.6,173.7,212.6z"/>
	<path class="st1" d="M193.6,231.3c0-9.2,5.7-15.6,14.8-15.6c7.9,0,13.2,4.6,13.5,11.5H214c-0.5-3-2.4-5-5.5-5c-3.9,0-6.4,3.3-6.4,9
		c0,5.8,2.5,9.1,6.4,9.1c2.9,0,5-1.8,5.5-5h7.9c-0.4,6.9-5.4,11.6-13.5,11.6C199.1,246.8,193.6,240.5,193.6,231.3z"/>
	<path class="st1" d="M235.6,246.3h-8.4V206h8.1v15.4h0.4c1.4-3.6,4.4-5.7,9-5.7c6.3,0,10.4,4.3,10.4,11.4v19.2h-8.4v-17.7
		c0-3.7-2-5.9-5.4-5.9c-3.4,0-5.8,2.3-5.8,6.2V246.3z"/>
	<path class="st1" d="M261.8,216.1h8.1v5.3h0.3c1.1-3.7,3.9-5.7,7.2-5.7c0.8,0,1.9,0.1,2.6,0.3v7.4c-0.8-0.3-2.4-0.5-3.5-0.5
		c-3.7,0-6.4,2.6-6.4,6.3v17.1h-8.4V216.1z"/>
	<path class="st1" d="M281.8,231.3c0-9.3,5.8-15.6,14.6-15.6c8,0,14.2,5.1,14.2,15.3v2.3H290v0c0,4.5,2.7,7.3,6.8,7.3
		c2.8,0,4.9-1.2,5.8-3.5l7.7,0.5c-1.2,5.6-6.2,9.2-13.7,9.2C287.5,246.8,281.8,240.9,281.8,231.3z M302.7,228.1
		c0-3.6-2.5-6.2-6.2-6.2c-3.7,0-6.3,2.7-6.5,6.2H302.7z"/>
	<path class="st1" d="M315.7,208c0-2.3,2-4.2,4.5-4.2c2.5,0,4.5,1.9,4.5,4.2c0,2.3-2,4.2-4.5,4.2C317.8,212.2,315.7,210.3,315.7,208
		z M316,216.1h8.4v30.2H316V216.1z"/>
	<path class="st1" d="M331.2,206h8.4v15.1h0.3c1.1-2.5,3.5-5.5,8.6-5.5c6.6,0,12.2,5.1,12.2,15.5c0,10.1-5.4,15.5-12.2,15.5
		c-4.9,0-7.4-2.8-8.6-5.3h-0.4v4.8h-8.2V206z M345.8,240.1c4.1,0,6.3-3.7,6.3-8.9c0-5.2-2.2-8.8-6.3-8.8c-4.1,0-6.3,3.4-6.3,8.8
		S341.8,240.1,345.8,240.1z"/>
	<path class="st1" d="M365,231.3c0-9.3,5.8-15.6,14.6-15.6c8,0,14.2,5.1,14.2,15.3v2.3h-20.5v0c0,4.5,2.7,7.3,6.8,7.3
		c2.8,0,4.9-1.2,5.8-3.5l7.7,0.5c-1.2,5.6-6.2,9.2-13.7,9.2C370.7,246.8,365,240.9,365,231.3z M385.9,228.1c0-3.6-2.5-6.2-6.2-6.2
		c-3.7,0-6.3,2.7-6.5,6.2H385.9z"/>
	<path class="st1" d="M407.6,246.3h-8.4v-30.2h8v5.3h0.4c1.4-3.5,4.6-5.7,9.1-5.7c6.3,0,10.4,4.3,10.4,11.4v19.2h-8.4v-17.7
		c0-3.7-2-5.9-5.4-5.9c-3.4,0-5.7,2.3-5.7,6.2V246.3z"/>
	<path class="st1" d="M461.6,212.6c-4.2,0-6.5,1.9-6.5,4.5c-0.1,2.9,2.9,4.2,6.4,5l3.6,0.9c7,1.6,12,5.1,12.1,11.8
		c0,7.4-5.8,12.1-15.6,12.1c-9.8,0-16-4.5-16.2-13.2h8.2c0.3,4,3.5,6.1,7.9,6.1c4.3,0,7.1-2,7.1-4.9c0-2.7-2.5-4-6.8-5l-4.4-1.1
		c-6.8-1.6-11-5-11-11c0-7.3,6.4-12.2,15.2-12.2c9,0,14.8,4.9,15,12.1h-8.1C468.2,214.4,465.7,212.6,461.6,212.6z"/>
	<path class="st1" d="M482.4,208c0-2.3,2-4.2,4.5-4.2c2.5,0,4.5,1.9,4.5,4.2c0,2.3-2,4.2-4.5,4.2C484.4,212.2,482.4,210.3,482.4,208
		z M482.7,216.1h8.4v30.2h-8.4V216.1z"/>
	<path class="st1" d="M496.5,231.3c0-9.3,5.8-15.6,14.6-15.6c8,0,14.2,5.1,14.2,15.3v2.3h-20.5v0c0,4.5,2.7,7.3,6.8,7.3
		c2.8,0,4.9-1.2,5.8-3.5l7.7,0.5c-1.2,5.6-6.2,9.2-13.7,9.2C502.2,246.8,496.5,240.9,496.5,231.3z M517.5,228.1
		c0-3.6-2.5-6.2-6.2-6.2c-3.7,0-6.3,2.7-6.5,6.2H517.5z"/>
	<path class="st1" d="M563,216.1h8.4v30.2h-8v-5.5H563c-1.4,3.5-4.6,5.9-9.2,5.9c-6.1,0-10.2-4.3-10.2-11.4v-19.2h8.4v17.7
		c0,3.6,2.1,5.8,5.2,5.8c3,0,5.8-2.1,5.8-6.2V216.1z"/>
	<path class="st1" d="M586.4,246.3H578v-30.2h8v5.3h0.4c1.4-3.5,4.6-5.7,9.1-5.7c6.3,0,10.4,4.3,10.4,11.4v19.2h-8.4v-17.7
		c0-3.7-2-5.9-5.4-5.9c-3.4,0-5.7,2.3-5.7,6.2V246.3z"/>
	<path class="st1" d="M629.8,225.2c-0.4-1.9-2.1-3.5-5-3.5c-2.6,0-4.6,1.2-4.6,3c0,1.5,1,2.4,3.8,3l5.5,1.1c5.9,1.2,8.7,3.8,8.7,8.2
		c0,6-5.6,9.9-13.4,9.9c-8,0-12.9-3.6-13.7-9.3l8.2-0.4c0.5,2.5,2.5,3.7,5.5,3.7c2.9,0,4.9-1.3,4.9-3.1c0-1.5-1.2-2.5-3.9-3l-5.2-1
		c-5.9-1.2-8.7-4.1-8.7-8.6c0-5.8,5.1-9.4,12.8-9.4c7.6,0,12.1,3.4,12.8,9L629.8,225.2z"/>
</g>
<g>
	<path class="st1" d="M165.6,65.2c0-12.4,5.8-19.4,15.3-19.4c9.5,0,15.3,7.1,15.3,19.4c0,12.5-5.8,19.7-15.3,19.7
		C171.4,84.8,165.6,77.6,165.6,65.2z M188,65.2c0-8.6-2.8-12.9-7.1-12.9c-4.3,0-7.1,4.3-7.1,12.9c0,8.7,2.8,13.1,7.1,13.1
		C185.2,78.2,188,73.9,188,65.2z"/>
	<path class="st1" d="M231,53v-0.3h-18.2v-6.5h26.5v6.6L223.6,84h-8.2L231,53z"/>
	<path class="st1" d="M263,53v-0.3h-18.2v-6.5h26.5v6.6L255.5,84h-8.2L263,53z"/>
	<path class="st1" d="M288.4,73.3h8c0.1,2.8,2.8,4.6,6.3,4.6c3.7,0,6.2-2.1,6.2-5.1c0-3-2.7-5.2-6.9-5.2h-3.5v-5.9h3.5
		c3.6,0,6.2-2,6.1-5c0-2.8-2.1-4.8-5.4-4.8c-3.3,0-5.9,1.9-6,4.7h-7.7c0.1-6.5,5.9-11.1,13.7-11.1c7.8,0,13,4.7,13,10.6
		c0,4.2-2.9,7.2-7.1,8v0.3c5.6,0.7,8.5,4.1,8.5,8.8c0,6.5-6.1,11.1-14.5,11.1C294.4,84.5,288.5,79.9,288.4,73.3z"/>
	<path class="st1" d="M322.4,66c0-12.8,6-20.4,15.4-20.4c7.5,0,12.7,4.8,13.5,11.2h-7.9c-0.6-2.8-2.7-4.3-5.6-4.3
		c-4.9,0-7.5,4.6-7.5,12h0.3c1.7-3.3,5.4-5.3,9.5-5.3c6.7,0,11.6,5.1,11.6,12.2c0,7.7-5.7,13.2-14.1,13.2
		C329.7,84.5,322.4,79.8,322.4,66z M343.9,71.6c0-3.7-2.7-6.6-6.4-6.6c-3.7,0-6.5,3-6.5,6.7c0,3.7,2.7,6.7,6.4,6.7
		S343.9,75.4,343.9,71.6z"/>
	<path class="st1" d="M387.1,71.6h-17.2v-6.2h17.2V71.6z"/>
	<path class="st1" d="M434.5,64.1c0,12.8-6,20.4-15.4,20.4c-7.6,0-12.7-4.8-13.5-11.2h7.9c0.6,2.7,2.7,4.3,5.6,4.3
		c4.9,0,7.5-4.6,7.5-12h-0.3c-1.7,3.3-5.4,5.3-9.5,5.3c-6.7,0-11.6-5.1-11.6-12.2c0-7.7,5.7-13.2,14.1-13.2
		C427.2,45.6,434.5,50.3,434.5,64.1z M413,58.5c0,3.7,2.7,6.6,6.3,6.6c3.7,0,6.5-3,6.5-6.7c0-3.7-2.7-6.6-6.4-6.6
		C415.7,51.9,413,54.8,413,58.5z"/>
	<path class="st1" d="M440,78.2l13.4-12.5c3.4-3.3,5.3-5.4,5.3-8.4c0-3.3-2.5-5.4-5.8-5.4c-3.4,0-5.7,2.2-5.7,5.8h-7.6
		c0-7.4,5.4-12.2,13.4-12.2c8.1,0,13.4,4.6,13.4,11.2c0,4.3-2.1,7.8-9.9,14.9l-5.5,5.4v0.3h15.9V84H440V78.2z"/>
	<path class="st1" d="M484.2,71.1L500,46.2h10V71h4.7v6.4H510V84h-7.6v-6.6h-18.1V71.1z M502.5,54.9h-0.3l-9.9,15.7V71h10.2V54.9z"
		/>
	<path class="st1" d="M519.4,71.1l15.8-24.8h10V71h4.7v6.4h-4.7V84h-7.6v-6.6h-18.1V71.1z M537.7,54.9h-0.3l-9.9,15.7V71h10.2V54.9z
		"/>
	<path class="st1" d="M566.7,73.8c0-4.7,3.6-8.6,8.2-9.3v-0.3c-4-0.8-6.8-4.2-6.8-8.4c0-5.8,5.6-10.2,13.2-10.2
		c7.6,0,13.2,4.3,13.3,10.2c0,4.2-2.8,7.6-6.8,8.4v0.3c4.5,0.8,8.2,4.6,8.2,9.3c0,6.1-6.1,10.7-14.7,10.7
		C572.8,84.5,566.7,80,566.7,73.8z M587.7,73.2c0-3.3-2.7-5.6-6.3-5.6c-3.7,0-6.3,2.4-6.3,5.6c0,3.2,2.5,5.4,6.3,5.4
		C585.1,78.7,587.7,76.4,587.7,73.2z M586.8,56.7c0-2.9-2.3-5-5.5-5c-3.2,0-5.5,2-5.5,5c0,3,2.3,5.1,5.5,5.1
		C584.5,61.8,586.8,59.7,586.8,56.7z"/>
	<path class="st1" d="M601.2,73.3h8c0.1,2.8,2.8,4.6,6.3,4.6c3.7,0,6.2-2.1,6.2-5.1c0-3-2.7-5.2-6.9-5.2h-3.5v-5.9h3.5
		c3.6,0,6.2-2,6.1-5c0-2.8-2.1-4.8-5.4-4.8c-3.3,0-5.9,1.9-6,4.7H602c0.1-6.5,5.9-11.1,13.7-11.1c7.8,0,13,4.7,13,10.6
		c0,4.2-2.9,7.2-7.1,8v0.3c5.6,0.7,8.5,4.1,8.5,8.8c0,6.5-6.1,11.1-14.5,11.1C607.2,84.5,601.3,79.9,601.2,73.3z"/>
</g>
<g id="Ebene_2_00000044866276522266952160000011918955401774059426_">
	<g id="Phone_00000169546373114201479810000005944422549120464572_">
		<path class="st2" d="M96.9,79.9c-1.6-1.6-3.4-2.4-5.2-2.4c-1.8,0-3.6,0.8-5.2,2.4c-2.4,2.4-4.9,4.8-7.3,7.3
			c-0.4,0.4-0.8,0.7-1.2,0.7c-0.3,0-0.5-0.1-0.9-0.3c-1.6-0.9-3.3-1.6-4.8-2.5c-7-4.5-12.9-10.2-18.2-16.7
			c-2.6-3.2-4.9-6.7-6.5-10.5c-0.3-0.8-0.3-1.3,0.4-1.9c2.4-2.4,4.8-4.8,7.2-7.2c3.4-3.4,3.4-7.3,0-10.7c-1.9-1.9-3.8-3.8-5.7-5.7
			c-2-2-3.9-4-5.9-5.9c-1.6-1.6-3.4-2.4-5.2-2.4c-1.8,0-3.6,0.8-5.2,2.4c-2.6,2.4-4.9,4.9-7.4,7.2c-2.3,2.2-3.5,4.9-3.8,8
			c-0.4,5.1,0.9,9.9,2.6,14.6c3.6,9.7,9.1,18.3,15.7,26.3c9,10.7,19.8,19.2,32.3,25.3c5.7,2.8,11.5,4.9,17.9,5.2
			c0.4,0,0.8,0.1,1.1,0.1c3.9,0,7.3-1.2,10.1-4.3c2.1-2.3,4.5-4.5,6.7-6.7c3.3-3.3,3.3-7.3,0.1-10.6
			C104.8,87.7,100.9,83.8,96.9,79.9z M104.4,98c-0.7,0.7-1.4,1.4-2.2,2.2c-1.5,1.5-3.2,3-4.7,4.7c-1.4,1.6-3.2,2.3-5.7,2.3
			c-0.3,0-0.5,0-0.9,0c-4.7-0.3-9.6-1.7-15.6-4.6C63.7,97,53.5,89,45,78.9c-6.8-8-11.6-16.1-14.7-24.5c-1.8-4.9-2.5-8.6-2.2-12
			c0.1-1.8,0.7-3,1.9-4.1c1.5-1.4,3-3,4.5-4.5c0.9-1,1.9-1.9,2.9-2.9c0.5-0.5,0.9-0.7,1.1-0.7s0.5,0.1,1.1,0.7
			c1.3,1.3,2.6,2.6,3.9,3.9l2,2c1,1,1.9,2,2.9,2.9c0.9,0.9,1.8,1.8,2.8,2.8c1.1,1.1,1.1,1.3,0,2.3l-1,1c-2,2-4.1,4.1-6.2,6.2
			c-2.3,2.3-2.9,5.4-1.6,8.4c1.6,4,4,7.8,7.4,11.9c6.2,7.6,12.6,13.4,19.7,17.9c1.2,0.7,2.4,1.3,3.4,1.8c0.6,0.3,1.1,0.5,1.6,0.8
			c1.2,0.7,2.5,1.1,3.8,1.1c1.4,0,3.5-0.4,5.4-2.4c2.4-2.4,4.7-4.7,7.2-7.2c0.5-0.5,0.9-0.7,1.1-0.7c0.1,0,0.5,0.1,1.1,0.7
			c3.9,3.9,7.8,7.8,11.7,11.7C105.4,96.7,105.5,97,104.4,98z"/>
	</g>
</g>
</svg>
